<svg width="20" height="21" viewBox="0 0 20 21" fill="none" xmlns="http://www.w3.org/2000/svg">
<path d="M1.79424 11.0291C2.33141 8.34329 2.59999 7.00036 3.48746 6.13543C3.65149 5.97557 3.82894 5.8301 4.01786 5.70061C5.04004 5 6.40956 5 9.1486 5H10.8515C13.5906 5 14.9601 5 15.9823 5.70061C16.1712 5.8301 16.3486 5.97557 16.5127 6.13543C17.4001 7.00036 17.6687 8.34329 18.2059 11.0291C18.9771 14.8851 19.3627 16.8131 18.475 18.1793C18.3143 18.4267 18.1267 18.6555 17.9157 18.8616C16.7501 20 14.7839 20 10.8515 20H9.1486C5.21622 20 3.25004 20 2.08447 18.8616C1.87342 18.6555 1.68582 18.4267 1.5251 18.1793C0.637438 16.8131 1.02304 14.8851 1.79424 11.0291Z" stroke="black" stroke-width="1.5"/>
<path d="M7 5V4C7 2.34315 8.3431 1 10 1C11.6569 1 13 2.34315 13 4V5" stroke="black" stroke-width="1.5" stroke-linecap="round"/>
<path d="M7.1709 14C7.58273 15.1652 8.694 16 10.0002 16C11.3064 16 12.4177 15.1652 12.8295 14" stroke="black" stroke-width="1.5" stroke-linecap="round"/>
</svg>
