<svg width="17" height="19" viewBox="0 0 17 19" fill="none" xmlns="http://www.w3.org/2000/svg">
<path d="M15.8537 6.45375L8.95 1.275C8.82018 1.17763 8.66228 1.125 8.5 1.125C8.33772 1.125 8.17982 1.17763 8.05 1.275L1.14625 6.45375C1.0531 6.52361 0.977499 6.6142 0.925428 6.71834C0.873357 6.82248 0.846249 6.93732 0.846249 7.05375V17.0438C0.846249 17.2427 0.925266 17.4334 1.06592 17.5741C1.20657 17.7147 1.39734 17.7938 1.59625 17.7938H5.875C6.07391 17.7938 6.26468 17.7147 6.40533 17.5741C6.54598 17.4334 6.625 17.2427 6.625 17.0438V13.875C6.625 13.6761 6.70402 13.4853 6.84467 13.3447C6.98532 13.204 7.17609 13.125 7.375 13.125H10C10.1989 13.125 10.3897 13.204 10.5303 13.3447C10.671 13.4853 10.75 13.6761 10.75 13.875V17.0438C10.75 17.2427 10.829 17.4334 10.9697 17.5741C11.1103 17.7147 11.3011 17.7938 11.5 17.7938H15.4037C15.6027 17.7938 15.7934 17.7147 15.9341 17.5741C16.0747 17.4334 16.1537 17.2427 16.1537 17.0438V7.05375C16.1537 6.93732 16.1266 6.82248 16.0746 6.71834C16.0225 6.6142 15.9469 6.52361 15.8537 6.45375Z" stroke="black" stroke-width="1.5"/>
</svg>
