<svg width="21" height="19" viewBox="0 0 21 19" fill="none" xmlns="http://www.w3.org/2000/svg">
<path d="M1.5 7.5C1.5 7.03534 1.5 6.80302 1.53843 6.60982C1.69624 5.81644 2.31644 5.19624 3.10982 5.03843C3.30302 5 3.53534 5 4 5H10.5H17C17.4647 5 17.697 5 17.8902 5.03843C18.6836 5.19624 19.3038 5.81644 19.4616 6.60982C19.5 6.80302 19.5 7.03534 19.5 7.5C19.5 7.96466 19.5 8.197 19.4616 8.3902C19.3038 9.1836 18.6836 9.8038 17.8902 9.9616C17.697 10 17.4647 10 17 10H10.5H4C3.53534 10 3.30302 10 3.10982 9.9616C2.31644 9.8038 1.69624 9.1836 1.53843 8.3902C1.5 8.197 1.5 7.96466 1.5 7.5Z" stroke="black" stroke-width="1.5" stroke-linejoin="round"/>
<path d="M2.5 10V14C2.5 15.8856 2.5 16.8284 3.08579 17.4142C3.67157 18 4.61438 18 6.5 18H7.5H13.5H14.5C16.3856 18 17.3284 18 17.9142 17.4142C18.5 16.8284 18.5 15.8856 18.5 14V10" stroke="black" stroke-width="1.5" stroke-linecap="round" stroke-linejoin="round"/>
<path d="M10.5 5V18" stroke="black" stroke-width="1.5" stroke-linecap="round" stroke-linejoin="round"/>
<path d="M9.8753 4.21913L7.8959 1.74487C7.15125 0.81406 5.76102 0.73898 4.91813 1.58187C3.6582 2.8418 4.54662 5 6.32843 5H9.5C9.903 5 10.1271 4.53383 9.8753 4.21913Z" stroke="black" stroke-width="1.5" stroke-linecap="round" stroke-linejoin="round"/>
<path d="M11.1247 4.21913L13.1041 1.74487C13.8488 0.81406 15.239 0.73898 16.0819 1.58187C17.3418 2.8418 16.4534 5 14.6716 5H11.5C11.097 5 10.8729 4.53383 11.1247 4.21913Z" stroke="black" stroke-width="1.5" stroke-linecap="round" stroke-linejoin="round"/>
</svg>
